<?xml version="1.0" encoding="UTF-8" standalone="no"?>
<svg
   width="32"
   height="32"
   fill="#f0f0f0"
   viewBox="0 0 256 256"
   data-darkreader-inline-fill=""
   version="1.1"
   id="svg1"
   xmlns="http://www.w3.org/2000/svg"
   xmlns:svg="http://www.w3.org/2000/svg">
  <defs
     id="defs1" />
  <path
     id="path1"
     d="M 200.25,31.984375 C 196.06443,31.879199 191.99588,35.096466 192,40 V 56 H 96 c -39.746185,0.04409 -71.955911,32.253815 -72,72 0,4.41828 3.581726,8 8,8 4.418274,0 8,-3.58172 8,-8 0.03307,-30.914207 25.085793,-55.96693 56,-56 h 96 v 16 c -0.006,7.132413 8.61568,10.702436 13.65625,5.65625 l 24,-24 c 3.12839,-3.12491 3.12839,-8.18759 0,-11.3125 l -24,-24 C 204.08107,32.766817 202.15253,32.032182 200.25,31.984375 Z M 192.92188,153.6875 A 38.310444,38.310444 0 0 0 154.60938,192 38.310444,38.310444 0 0 0 192.92188,230.3125 38.310444,38.310444 0 0 0 231.21875,192 38.310444,38.310444 0 0 0 192.92188,153.6875 Z" />
</svg>
