<?xml version="1.0" encoding="UTF-8" standalone="no"?>
<svg
   width="32"
   height="32"
   fill="#f0f0f0"
   viewBox="0 0 256 256"
   data-darkreader-inline-fill=""
   version="1.1"
   id="svg1"
   xmlns="http://www.w3.org/2000/svg"
   xmlns:svg="http://www.w3.org/2000/svg">
  <defs
     id="defs1" />
  <path
     d="m 237.66,178.34 c 3.12839,3.12491 3.12839,8.19509 0,11.32 l -24,24 C 208.61942,218.70619 199.99439,215.13242 200,208 V 192 H 32 c -4.418281,0 -7.999997,-3.58172 -7.999997,-8 0,-4.41828 3.581716,-8 7.999997,-8 h 168 v -16 c -0.006,-7.13242 8.61942,-10.70619 13.66,-5.66 z M 24,72 c 0,3.6 3.6,8 8,8 h 168 v 16 c -0.006,7.13242 8.61942,10.70619 13.66,5.66 l 24,-24 c 3.12839,-3.124913 3.12839,-8.195087 0,-11.32 l -24,-24 C 208.61942,37.293809 199.99439,40.86758 200,48 V 64 H 32 c -4.4,0 -8,3.6 -8,8 z"
     id="path1" />
</svg>
